Coordinates
version=1
nRows=19
nColumns=18
inDegrees=yes

Units are S.I. units (second, meters, Newtons, ...)
Angles are in degrees.

endheader
time	ground_thorax_rot_x	ground_thorax_rot_y	ground_thorax_rot_z	ground_thorax_tx	ground_thorax_ty	ground_thorax_tz	clav_prot	clav_elev	scapula_abduction	scapula_elevation	scapula_upward_rot	scapula_winging	plane_elv	shoulder_elv	axial_rot	elbow_flexion	pro_sup
      0.00000000	      1.49620871	     -5.32659337	     -9.68977209	     -0.00423131	      0.00403036	     -0.00078352	    -19.58409780	     -4.82601600	     -7.26447884	     -4.21621473	     12.82620439	      5.34319169	    -23.34166401	     15.22443108	     50.06837250	      0.00000000	     34.32000000
      0.01000000	      1.48788245	     -5.35728011	     -9.67327082	     -0.00423131	      0.00403036	     -0.00078352	    -19.58558114	     -4.81672509	     -7.26333640	     -4.21174949	     12.83613829	      5.33798706	    -23.35024945	     15.25548661	     50.07496427	      0.00000000	     34.32000000
      0.02000000	      1.47994703	     -5.43801878	     -9.58596833	     -0.00423131	      0.00403036	     -0.00078352	    -19.49687462	     -4.82166362	     -7.26829142	     -4.13684777	     12.55645405	      5.39758040	    -22.51892613	     15.63354389	     47.59219201	      0.00000000	     34.32000000
      0.03000000	      1.48680153	     -5.48524391	     -9.61290936	     -0.00423131	      0.00403036	     -0.00078352	    -19.50388113	     -4.81817062	     -7.27562041	     -4.13707501	     12.56618321	      5.39490206	    -22.53053111	     15.61045901	     47.59931074	      0.00000000	     34.32000000
      0.04000000	      1.46309143	     -5.40595635	     -9.60720959	     -0.00423131	      0.00403036	     -0.00078352	    -19.65479805	     -4.83099370	     -7.44488427	     -4.19725547	     12.72517020	      5.37973011	    -23.13382717	     15.52503328	     46.56335360	      0.00000000	     34.32000000
      0.05000000	      1.36908419	     -5.49584253	     -9.55564254	     -0.00423131	      0.00403036	     -0.00078352	    -19.51381975	     -4.89163877	     -7.19912506	     -4.22932570	     12.69961006	      5.38662775	    -23.62426973	     15.50257134	     47.03600347	      0.00000000	     34.32000000
      0.06000000	      1.57551789	     -5.49044520	     -9.55008951	     -0.00423131	      0.00403036	     -0.00078352	    -19.54205040	     -4.55691864	     -7.17188428	     -4.04515695	     12.96939083	      5.21581444	    -24.24105331	     14.94388586	     53.40008165	      0.00000000	     34.32000000
      0.07000000	      1.56647551	     -5.51361670	     -9.56907252	     -0.00423131	      0.00403036	     -0.00078352	    -19.54774765	     -4.55763239	     -7.17221837	     -4.05022897	     12.98549804	      5.21258362	    -23.92338560	     14.95682906	     52.85323974	      0.00000000	     34.32000000
      0.08000000	      1.57417349	     -5.51919621	     -9.60478643	     -0.00423131	      0.00403036	     -0.00078352	    -19.54689600	     -4.57425351	     -7.15248212	     -4.06955485	     13.01040121	      5.21136956	    -23.77311101	     15.09769342	     51.25734403	      0.00000000	     34.32000000
      0.09000000	      1.59302973	     -5.44943087	     -9.61497517	     -0.00423131	      0.00403036	     -0.00078352	    -19.61645996	     -4.57206847	     -7.23962564	     -4.08744976	     13.07055151	      5.20499424	    -23.99786095	     15.04306444	     51.95296148	      0.00000000	     34.32000000
      0.10000000	      1.58167314	     -5.40807360	     -9.58621342	     -0.00423131	      0.00403036	     -0.00078352	    -19.63864316	     -4.57141794	     -7.31886490	     -4.06984744	     13.00096589	      5.22537700	    -23.98815574	     14.98089173	     52.86653328	      0.00000000	     34.32000000
      0.11000000	      1.57357172	     -5.38875422	     -9.54123238	     -0.00423131	      0.00403036	     -0.00078352	    -19.62482501	     -4.52349287	     -7.29650865	     -4.03672063	     13.01760527	      5.20410858	    -23.97509958	     14.96686790	     51.60663524	      0.00000000	     34.32000000
      0.12000000	      1.55138175	     -5.18993014	     -9.62452124	     -0.00423131	      0.00403036	     -0.00078352	    -19.84897187	     -4.67463281	     -7.84106996	     -4.07865330	     12.69026956	      5.36391137	    -21.96393683	     15.66502856	     44.63523331	      0.00000000	     34.32000000
      0.13000000	      1.58124187	     -5.18231900	     -9.62189699	     -0.00423131	      0.00403036	     -0.00078352	    -19.83774320	     -4.69344947	     -7.81772184	     -4.09213010	     12.68888381	      5.36847418	    -21.96699442	     15.65521535	     44.65052668	      0.00000000	     34.32000000
      0.14000000	      1.53545441	     -5.41312335	     -9.62214217	     -0.00423131	      0.00403036	     -0.00078352	    -19.60074401	     -4.72689038	     -7.37590632	     -4.11385874	     12.72340295	      5.33946658	    -22.25111208	     15.73200691	     44.65876862	      0.00000000	     34.32000000
      0.15000000	      1.49955349	     -5.42294019	     -9.58478126	     -0.00423131	      0.00403036	     -0.00078352	    -19.58647934	     -4.67841261	     -7.30792326	     -4.10112946	     12.81866583	      5.29821413	    -23.14787876	     15.42749911	     47.08290713	      0.00000000	     34.32000000
      0.16000000	      1.54289129	     -5.38470588	     -9.52357239	     -0.00423131	      0.00403036	     -0.00078352	    -19.65692948	     -4.52314741	     -7.42232855	     -4.00654125	     12.89730379	      5.23850190	    -23.79430179	     14.95770615	     52.83066153	      0.00000000	     34.32000000
      0.17000000	      1.56592792	     -5.33960710	     -9.55850485	     -0.00423131	      0.00403036	     -0.00078352	    -19.72102224	     -4.47498929	     -7.46461958	     -4.01009302	     13.03769269	      5.19647701	    -23.89067784	     14.76642584	     53.07500581	      0.00000000	     34.32000000
      0.18000000	      1.42388605	     -5.21395141	     -9.65321267	     -0.00423131	      0.00403036	     -0.00078352	    -19.81307596	     -4.77609917	     -7.77145533	     -4.14670473	     12.66037420	      5.39893893	    -22.21391129	     15.58201563	     45.34642543	      0.00000000	     34.32000000
